<?xml version="1.0" standalone="no"?>
<!DOCTYPE svg PUBLIC "-//W3C//DTD SVG 20010904//EN"
 "http://www.w3.org/TR/2001/REC-SVG-20010904/DTD/svg10.dtd">
<svg version="1.0" xmlns="http://www.w3.org/2000/svg"
 width="608.000000pt" height="608.000000pt" viewBox="0 0 608.000000 608.000000"
 preserveAspectRatio="xMidYMid meet">

<g transform="translate(0.000000,608.000000) scale(0.100000,-0.100000)"
fill="#000000" stroke="none">
<path d="M2 3038 l3 -3043 2 3038 3 3037 3030 0 3030 0 3 -3037 2 -3038 3
3043 2 3042 -3040 0 -3040 0 2 -3042z"/>
<path d="M2954 5113 c5 -13 1 -14 -23 -10 -25 5 -29 4 -24 -10 5 -12 2 -15 -8
-11 -8 3 -25 -5 -39 -18 -20 -20 -22 -24 -7 -24 9 0 17 5 17 11 0 5 4 8 10 4
5 -3 18 2 28 12 22 22 57 27 70 10 14 -18 22 -57 11 -57 -5 0 -9 -7 -9 -16 0
-8 -3 -13 -7 -11 -5 3 -17 1 -28 -4 -16 -6 -12 -8 18 -8 20 -1 38 2 38 7 6 30
4 90 -3 86 -4 -3 -8 2 -8 11 0 9 5 13 10 10 6 -3 10 -2 10 2 0 5 -14 14 -31
20 -27 10 -30 10 -25 -4z"/>
<path d="M2695 5100 c-3 -5 1 -10 9 -10 9 0 16 5 16 10 0 6 -4 10 -9 10 -6 0
-13 -4 -16 -10z"/>
<path d="M2737 5090 c-9 -11 -17 -24 -17 -29 0 -16 49 1 72 26 l23 26 -28 -18
c-24 -15 -27 -16 -21 -1 9 22 -8 20 -29 -4z"/>
<path d="M2860 5099 c0 -5 5 -7 10 -4 6 3 10 8 10 11 0 2 -4 4 -10 4 -5 0 -10
-5 -10 -11z"/>
<path d="M3020 5084 c0 -13 5 -24 11 -24 6 0 9 6 6 13 -4 10 3 12 26 9 l31 -5
-28 -22 c-24 -19 -25 -23 -12 -35 11 -8 16 -9 16 -1 0 19 14 12 34 -18 12 -17
26 -27 34 -24 8 3 18 0 23 -8 7 -12 9 -11 9 2 0 11 10 16 30 17 20 0 30 -4 30
-14 0 -8 -4 -14 -10 -14 -5 0 -10 5 -10 11 0 5 -5 7 -11 3 -6 -4 1 -13 18 -24
24 -14 29 -15 33 -3 4 10 15 0 35 -31 16 -26 35 -44 42 -42 7 3 10 -1 6 -10
-3 -7 -11 -14 -19 -14 -22 0 -16 -13 19 -42 27 -21 33 -33 32 -61 0 -20 2 -34
6 -31 16 9 37 -9 43 -37 5 -24 10 -29 25 -24 12 4 20 0 24 -12 4 -10 13 -36
21 -58 9 -22 16 -53 16 -68 0 -16 7 -30 16 -34 8 -3 13 -12 10 -19 -4 -10 1
-11 21 -3 14 5 28 7 31 4 3 -3 0 -5 -7 -5 -7 0 -9 -9 -5 -25 4 -16 2 -25 -6
-25 -6 0 -8 -5 -4 -11 4 -8 9 -7 15 2 8 12 11 11 19 -1 5 -8 7 -22 4 -31 -5
-17 14 -69 30 -80 5 -4 5 -12 1 -19 -6 -9 -12 -4 -21 16 -13 26 -13 22 -7 -41
4 -38 7 -92 7 -120 -1 -37 3 -54 17 -66 11 -9 19 -26 19 -38 0 -14 6 -21 20
-21 11 0 20 -6 20 -13 0 -8 9 -22 20 -32 12 -10 19 -24 16 -31 -2 -6 0 -16 5
-21 5 -5 13 -33 19 -63 17 -84 38 -362 30 -385 -7 -19 -3 -186 5 -193 8 -9 45
10 39 20 -4 7 -2 8 5 4 13 -8 41 16 41 35 0 8 -6 6 -19 -5 -40 -36 -69 14 -35
62 8 12 14 32 13 45 -1 12 3 35 9 50 7 16 12 35 12 43 0 8 7 14 15 14 8 0 15
5 15 11 0 6 7 17 15 25 21 22 20 78 -1 70 -9 -3 -19 -6 -24 -6 -4 0 -10 -9
-13 -20 -8 -30 -24 -24 -32 11 -9 42 6 54 65 54 46 0 50 -2 50 -24 0 -42 9
-17 14 39 3 30 14 82 26 114 11 33 20 80 20 105 l0 46 -29 -30 c-16 -16 -27
-33 -25 -36 2 -3 -8 -12 -21 -19 -14 -7 -25 -17 -25 -22 0 -4 -7 -8 -15 -8
-19 0 -19 19 1 58 8 18 14 40 11 50 -3 14 -6 12 -14 -8 -6 -14 -19 -32 -29
-40 -16 -14 -17 -13 -8 15 15 51 10 214 -9 300 -25 106 -103 349 -130 404 -12
24 -28 45 -34 48 -7 3 -13 16 -13 29 0 17 -6 24 -19 24 -12 0 -20 9 -24 28 -7
36 -71 102 -75 78 -4 -21 -42 -21 -42 0 0 8 -4 12 -10 9 -5 -3 -10 1 -10 9 0
9 7 16 15 16 12 0 11 4 -4 19 -10 10 -20 22 -22 27 -7 16 -113 90 -174 120
-33 17 -82 36 -110 44 -27 7 -55 17 -61 22 -7 5 -30 10 -53 13 -38 3 -41 2
-41 -21z m133 -57 c3 -9 -5 -14 -25 -15 -19 -2 -27 1 -23 8 4 6 13 9 21 6 8
-3 14 -1 14 4 0 14 7 12 13 -3z m217 -96 c0 -14 -63 -22 -74 -10 -8 8 -8 10
-1 6 6 -3 16 -2 23 2 16 10 52 11 52 2z m0 -41 c0 -11 -5 -20 -11 -20 -5 0 -7
5 -4 10 3 6 0 10 -7 10 -9 0 -9 3 2 10 20 13 20 13 20 -10z m93 -4 c4 -9 -3
-12 -19 -10 -21 2 -23 0 -13 -12 7 -9 8 -14 1 -14 -18 0 -23 18 -11 39 13 20
34 18 42 -3z m-93 -63 c0 -12 -2 -12 -15 1 -8 8 -15 17 -15 20 0 3 7 3 15 0 8
-4 15 -13 15 -21z m50 -60 c0 -5 -5 -15 -10 -23 -8 -12 -10 -11 -10 8 0 12 5
22 10 22 6 0 10 -3 10 -7z m60 -20 c0 -19 -3 -24 -8 -15 -5 8 -16 10 -28 6
-14 -6 -13 -2 6 14 31 27 30 27 30 -5z m-23 -40 c4 -10 13 -24 20 -32 8 -7 12
-16 9 -18 -5 -6 -66 51 -66 61 0 14 31 4 37 -11z m133 -38 c0 -13 5 -26 10
-28 6 -3 5 -4 -2 -3 -7 1 -14 12 -16 24 -2 12 -10 22 -18 22 -8 0 -13 4 -9 10
10 16 35 -1 35 -25z m30 15 c0 -5 -5 -10 -11 -10 -5 0 -7 5 -4 10 3 6 8 10 11
10 2 0 4 -4 4 -10z m-107 -55 c-7 -21 -12 -19 -10 4 0 11 5 18 9 15 4 -3 5
-11 1 -19z m54 -41 c-10 -10 -37 16 -37 34 0 13 4 12 22 -5 12 -13 19 -25 15
-29z m42 -85 c-11 -21 -24 -24 -34 -9 -8 13 17 39 32 33 9 -4 10 -10 2 -24z
m26 -167 c-9 -9 -35 8 -35 23 0 13 3 12 20 -2 11 -9 17 -19 15 -21z m25 -62
c0 -5 -4 -10 -10 -10 -5 0 -10 5 -10 10 0 6 5 10 10 10 6 0 10 -4 10 -10z m20
-250 c0 -5 -4 -10 -10 -10 -5 0 -10 5 -10 10 0 6 5 10 10 10 6 0 10 -4 10 -10z
m177 -196 c-9 -9 -28 6 -21 18 4 6 10 6 17 -1 6 -6 8 -13 4 -17z m-17 -19 c11
-13 10 -14 -4 -9 -9 3 -16 10 -16 15 0 13 6 11 20 -6z m-53 -277 c-3 -7 -5 -2
-5 12 0 14 2 19 5 13 2 -7 2 -19 0 -25z m14 -59 c-6 -16 -10 -18 -10 -7 -1 22
12 55 16 42 2 -6 -1 -22 -6 -35z"/>
<path d="M2835 5090 c-3 -5 -1 -10 4 -10 6 0 11 5 11 10 0 6 -2 10 -4 10 -3 0
-8 -4 -11 -10z"/>
<path d="M2576 5073 c-40 -11 -60 -21 -63 -34 -3 -10 -9 -17 -13 -14 -11 7
-70 -15 -70 -26 0 -5 -9 -9 -20 -9 -11 0 -28 -9 -37 -20 -10 -11 -23 -20 -30
-20 -7 0 -13 -7 -13 -15 0 -9 -6 -12 -15 -9 -9 4 -15 0 -15 -9 0 -9 -4 -19
-10 -22 -6 -4 -7 1 -3 12 5 14 1 13 -20 -6 -15 -13 -24 -28 -21 -32 3 -5 -3
-6 -12 -2 -13 5 -16 3 -11 -10 4 -11 2 -14 -9 -10 -10 4 -17 -2 -21 -16 -3
-11 -9 -21 -14 -21 -5 0 -6 -7 -3 -15 4 -9 0 -15 -8 -15 -7 0 -19 -8 -26 -17
-87 -128 -145 -235 -168 -312 -7 -25 -20 -111 -30 -191 -17 -156 -14 -266 13
-400 8 -41 16 -86 17 -100 2 -14 9 -36 16 -50 8 -14 17 -45 21 -70 l6 -45 2
51 c0 28 -4 76 -10 105 -6 30 -12 87 -13 127 -2 51 -7 76 -17 82 -12 8 -12 11
1 25 17 16 15 100 -1 89 -5 -3 -9 6 -9 20 0 16 6 26 15 26 9 0 15 9 15 25 0
14 4 25 8 25 4 0 8 9 8 20 0 11 -4 20 -8 20 -4 0 -8 7 -8 15 0 8 4 15 8 15 8
0 33 127 36 180 0 14 6 31 13 38 7 7 9 19 6 28 -3 9 3 21 16 31 12 8 21 22 19
31 -2 10 7 28 20 42 12 14 35 46 49 73 14 26 32 47 40 47 7 0 18 9 25 20 7 11
16 20 20 20 19 0 48 37 48 62 0 33 10 36 30 8 8 -11 19 -20 24 -20 6 0 5 5 -2
12 -17 17 -15 38 3 38 8 0 15 5 15 12 0 6 10 3 21 -8 22 -19 22 -19 10 3 -9
19 -9 22 3 17 8 -3 17 -16 20 -30 8 -29 22 -31 29 -4 3 12 -1 23 -9 28 -12 7
-12 11 -1 26 9 12 19 16 27 11 10 -6 9 -9 -1 -17 -11 -7 -9 -8 6 -6 26 4 32
36 8 45 -10 3 -22 13 -26 20 -5 7 -12 11 -18 8 -5 -4 -9 -1 -9 4 0 16 16 13
34 -5 13 -13 16 -13 16 -1 0 22 23 37 40 27 9 -6 20 -2 33 13 l19 22 -7 -28
c-8 -31 10 -38 20 -7 3 11 11 20 17 20 6 0 8 -9 5 -20 -3 -13 0 -20 8 -20 16
0 29 -35 19 -52 -5 -8 -2 -9 10 -5 10 4 20 7 22 7 2 0 4 5 4 11 0 5 -4 7 -10
4 -11 -6 -26 42 -16 52 3 4 6 -3 6 -14 0 -12 8 -23 20 -26 13 -3 20 0 20 10 0
8 4 12 8 9 4 -2 14 -1 21 3 10 6 9 10 -3 14 -8 3 -22 0 -30 -9 -9 -9 -17 -10
-21 -4 -3 5 -1 10 4 10 6 0 11 6 11 14 0 8 8 14 18 13 13 -1 72 29 72 37 0 1
-9 2 -20 2 -11 0 -20 -5 -20 -11 0 -7 -7 -12 -15 -12 -8 0 -15 6 -15 14 0 7
-5 13 -11 13 -5 0 -8 4 -5 9 11 17 -6 41 -28 40 -11 -1 -47 -8 -80 -16z m94
-1 c0 -4 -6 -14 -12 -21 -11 -10 -10 -15 4 -25 13 -9 14 -16 6 -24 -8 -8 -15
-5 -25 15 -18 35 -17 54 4 46 11 -4 14 -3 9 5 -4 7 -2 12 3 12 6 0 11 -4 11
-8z m-440 -327 c0 -2 -7 -5 -15 -9 -9 -3 -15 0 -15 9 0 9 6 12 15 9 8 -4 15
-7 15 -9z m-239 -482 c-12 -20 -14 -14 -5 12 4 9 9 14 11 11 3 -2 0 -13 -6
-23z m-16 -233 c3 -5 1 -10 -4 -10 -6 0 -11 5 -11 10 0 6 2 10 4 10 3 0 8 -4
11 -10z"/>
<path d="M4440 5080 c0 -5 5 -10 10 -10 6 0 10 5 10 10 0 6 -4 10 -10 10 -5 0
-10 -4 -10 -10z"/>
<path d="M2945 5070 c-3 -5 -1 -10 4 -10 6 0 11 5 11 10 0 6 -2 10 -4 10 -3 0
-8 -4 -11 -10z"/>
<path d="M2794 5057 c-6 -7 -9 -18 -6 -25 2 -6 -1 -12 -7 -12 -6 0 -11 -4 -11
-10 0 -21 17 -8 32 25 16 35 12 45 -8 22z"/>
<path d="M2916 5034 c-4 -11 -13 -14 -31 -10 -20 5 -25 3 -25 -13 0 -34 40
-33 71 1 34 36 35 38 10 38 -10 0 -22 -7 -25 -16z"/>
<path d="M3026 4991 c6 -30 -4 -38 -40 -32 -5 1 -6 -4 -3 -12 3 -7 -6 -22 -19
-32 -37 -28 -31 -52 6 -25 17 12 30 28 30 36 0 17 16 19 23 2 4 -8 6 -7 6 3 1
9 11 20 24 24 13 4 17 8 10 12 -7 2 -13 9 -13 15 0 5 -7 16 -15 24 -13 13 -14
12 -9 -15z"/>
<path d="M2820 4992 c0 -14 -6 -22 -16 -22 -10 0 -14 -6 -11 -14 6 -16 -28
-76 -43 -76 -18 0 -10 -29 11 -41 19 -10 21 -9 17 8 -7 26 9 45 60 71 51 26
49 26 55 5 3 -10 5 -3 6 15 1 29 -1 32 -18 23 -10 -6 -21 -8 -24 -4 -4 3 -10
-2 -13 -11 -5 -13 -9 -14 -14 -5 -5 7 -3 20 3 30 9 14 9 21 -1 31 -9 9 -12 7
-12 -10z"/>
<path d="M2746 4975 c4 -8 8 -15 10 -15 2 0 4 7 4 15 0 8 -4 15 -10 15 -5 0
-7 -7 -4 -15z"/>
<path d="M2910 4940 c0 -11 4 -20 9 -20 5 0 11 9 14 20 3 13 0 20 -9 20 -8 0
-14 -9 -14 -20z"/>
<path d="M2490 4944 c0 -7 27 -34 34 -34 13 0 5 16 -14 28 -11 7 -20 10 -20 6z"/>
<path d="M2604 4936 c-3 -9 -10 -14 -14 -11 -4 3 -10 -6 -12 -20 -4 -18 -1
-25 11 -25 13 0 13 -2 -2 -17 -13 -13 -19 -14 -29 -5 -15 15 -38 16 -38 2 0
-5 6 -10 14 -10 19 0 32 -19 41 -59 6 -28 5 -33 -8 -28 -10 4 -16 -2 -20 -19
-5 -30 7 -30 53 -3 22 14 36 17 38 10 2 -6 13 5 24 26 11 21 27 50 35 66 8 15
19 27 24 27 15 0 6 43 -10 48 -8 3 -11 0 -7 -7 4 -6 3 -11 -2 -11 -5 0 -12 -9
-15 -20 -3 -11 -12 -20 -21 -20 -10 0 -16 -9 -16 -22 0 -19 2 -20 10 -8 8 12
10 11 10 -6 0 -30 -11 -36 -32 -17 -17 15 -18 15 -18 -4 0 -11 -7 -26 -15 -33
-10 -9 -15 -9 -15 -1 0 6 5 11 11 11 7 0 10 12 7 30 -3 17 -2 30 2 30 4 0 12
11 18 25 9 19 8 23 -2 19 -18 -7 -29 25 -15 43 7 7 9 16 6 20 -4 3 -9 -2 -13
-11z m46 -156 c0 -5 -5 -10 -11 -10 -5 0 -7 5 -4 10 3 6 8 10 11 10 2 0 4 -4
4 -10z"/>
<path d="M4380 4935 c0 -8 6 -15 13 -15 8 0 7 -3 -3 -10 -9 -5 -19 -5 -27 1
-9 8 -13 5 -17 -13 -15 -70 -23 -174 -31 -373 -3 -71 -10 -236 -16 -365 -6
-129 -12 -354 -14 -500 -2 -146 -6 -303 -9 -350 -16 -248 -25 -407 -24 -420 0
-8 -2 -94 -6 -191 l-7 -176 52 -22 c28 -13 66 -25 84 -28 32 -5 33 -4 39 33 3
22 8 244 11 494 5 430 11 631 20 745 2 28 7 124 11 215 4 102 11 168 18 173 7
5 8 9 1 15 -6 4 -11 87 -13 212 -1 113 -3 280 -5 371 l-2 165 -29 27 c-33 30
-46 34 -46 12z"/>
<path d="M3082 4920 c-8 -13 -8 -20 -2 -20 6 0 13 7 17 15 9 24 -1 27 -15 5z"/>
<path d="M2730 4920 c0 -5 7 -10 16 -10 8 0 12 5 9 10 -3 6 -10 10 -16 10 -5
0 -9 -4 -9 -10z"/>
<path d="M3220 4900 c0 -5 5 -10 10 -10 6 0 10 5 10 10 0 6 -4 10 -10 10 -5 0
-10 -4 -10 -10z"/>
<path d="M2836 4885 c-5 -14 2 -25 16 -25 4 0 8 6 8 14 0 9 8 12 25 8 14 -2
25 0 25 5 0 14 -68 13 -74 -2z"/>
<path d="M3040 4884 c0 -8 5 -12 10 -9 6 3 10 10 10 16 0 5 -4 9 -10 9 -5 0
-10 -7 -10 -16z"/>
<path d="M2920 4878 c0 -11 -5 -15 -15 -12 -8 4 -15 1 -15 -5 0 -6 5 -11 11
-11 8 0 7 -5 -2 -16 -10 -13 -10 -17 2 -25 8 -5 10 -9 5 -9 -5 0 1 -9 14 -20
27 -24 40 -19 16 6 -19 18 -17 50 2 47 15 -4 15 6 -3 37 -11 19 -14 21 -15 8z"/>
<path d="M3085 4870 c-16 -4 -23 -9 -15 -10 8 -1 25 -3 38 -6 15 -3 22 1 22
11 0 16 -1 16 -45 5z"/>
<path d="M2980 4849 c0 -5 -4 -7 -10 -4 -5 3 -10 1 -10 -4 0 -6 11 -10 24 -9
19 2 22 5 14 15 -13 16 -18 16 -18 2z"/>
<path d="M3033 4853 c-7 -3 -13 -12 -13 -22 0 -11 -9 -17 -27 -19 -34 -3 -37
-6 -29 -37 4 -16 13 -25 26 -25 11 0 20 4 20 9 0 16 38 19 59 4 18 -12 21 -12
21 1 0 8 12 24 28 35 20 15 23 20 10 21 -9 0 -18 -5 -20 -12 -2 -6 -15 -13
-27 -15 -29 -4 -55 26 -39 45 13 15 8 21 -9 15z"/>
<path d="M2465 4840 c-3 -5 3 -10 13 -10 11 0 25 -7 32 -15 7 -8 21 -15 31
-15 11 0 19 7 19 15 0 14 -11 19 -37 16 -7 -1 -13 3 -13 9 0 13 -37 13 -45 0z"/>
<path d="M2834 4842 c-6 -4 -16 -17 -23 -29 -8 -16 -21 -23 -41 -23 -17 0 -30
5 -30 11 0 5 -4 7 -10 4 -5 -3 -10 -13 -10 -21 0 -8 5 -12 10 -9 6 3 10 -1 10
-9 0 -19 -1 -19 44 -1 20 8 38 14 41 13 2 -2 10 6 18 16 8 11 19 16 25 12 7
-4 12 -1 12 7 0 10 -7 13 -20 10 -16 -4 -19 -2 -14 11 7 18 4 19 -12 8z"/>
<path d="M3500 4830 c0 -5 5 -10 10 -10 6 0 10 5 10 10 0 6 -4 10 -10 10 -5 0
-10 -4 -10 -10z"/>
<path d="M2702 4795 c0 -16 2 -22 5 -12 2 9 2 23 0 30 -3 6 -5 -1 -5 -18z"/>
<path d="M3165 4810 c-3 -5 -1 -10 4 -10 6 0 11 5 11 10 0 6 -2 10 -4 10 -3 0
-8 -4 -11 -10z"/>
<path d="M2450 4791 c-14 -27 -13 -46 5 -61 12 -10 15 -10 15 0 0 8 8 23 17
34 10 12 14 18 9 14 -11 -10 -38 11 -30 23 3 5 3 9 0 9 -3 0 -10 -9 -16 -19z"/>
<path d="M3299 4791 c8 -5 10 -14 5 -22 -6 -12 -5 -12 9 0 23 19 21 31 -5 31
-17 0 -19 -3 -9 -9z"/>
<path d="M2940 4730 c-8 -11 -20 -18 -27 -16 -7 3 -10 -1 -6 -10 6 -16 23 -19
23 -4 0 6 6 10 14 10 19 0 27 13 17 28 -5 8 -11 6 -21 -8z"/>
<path d="M3017 4743 c-3 -4 -3 -20 0 -35 3 -18 10 -25 19 -21 9 3 12 13 8 25
-4 15 -3 18 6 13 8 -5 11 -3 8 6 -5 16 -34 24 -41 12z"/>
<path d="M2860 4726 c0 -8 5 -18 10 -21 6 -3 10 3 10 14 0 12 -4 21 -10 21 -5
0 -10 -6 -10 -14z"/>
<path d="M2743 4690 c1 -16 5 -30 8 -30 9 0 19 42 13 52 -11 18 -23 6 -21 -22z"/>
<path d="M3070 4700 c0 -5 7 -7 15 -4 8 4 15 8 15 10 0 2 -7 4 -15 4 -8 0 -15
-4 -15 -10z"/>
<path d="M2481 4684 c0 -11 3 -14 6 -6 3 7 2 16 -1 19 -3 4 -6 -2 -5 -13z"/>
<path d="M2641 4676 c-8 -10 -9 -16 -1 -21 5 -3 13 1 16 10 9 22 -1 29 -15 11z"/>
<path d="M2685 4670 c-3 -5 -1 -10 4 -10 6 0 11 5 11 10 0 6 -2 10 -4 10 -3 0
-8 -4 -11 -10z"/>
<path d="M2980 4676 c0 -2 9 -6 20 -9 11 -3 18 -1 14 4 -5 9 -34 13 -34 5z"/>
<path d="M2445 4630 c-3 -5 -1 -10 4 -10 6 0 11 5 11 10 0 6 -2 10 -4 10 -3 0
-8 -4 -11 -10z"/>
<path d="M3530 4430 c0 -5 7 -10 15 -10 8 0 15 5 15 10 0 6 -7 10 -15 10 -8 0
-15 -4 -15 -10z"/>
<path d="M3240 4212 c0 -7 -7 -12 -16 -12 -8 0 -12 -5 -8 -11 4 -7 11 -6 22 5
9 8 13 19 9 22 -4 4 -7 2 -7 -4z"/>
<path d="M3271 4184 c-1 -23 -19 -34 -54 -34 -18 0 -19 2 -7 10 11 8 7 9 -15
4 -16 -4 -49 -27 -72 -51 -23 -23 -46 -43 -52 -43 -6 0 -8 -7 -5 -15 4 -8 10
-13 14 -10 4 3 10 -2 14 -10 4 -10 -1 -15 -14 -15 -11 0 -20 -5 -20 -11 0 -5
-4 -7 -10 -4 -5 3 -10 1 -10 -5 0 -6 -5 -8 -11 -5 -5 4 -19 -3 -30 -16 -23
-26 -24 -30 -5 -23 8 3 17 0 21 -6 5 -8 11 -8 21 1 12 10 16 8 21 -9 3 -12 10
-22 17 -23 6 0 25 -2 43 -3 25 -3 30 0 25 12 -4 12 -1 14 12 9 10 -4 23 -7 29
-7 7 0 6 -5 -3 -11 -12 -9 -11 -9 5 -3 11 4 32 7 47 6 14 -1 32 5 38 13 7 8
22 15 33 15 11 0 29 7 39 17 17 15 18 15 18 -2 0 -10 3 -15 7 -12 3 4 17 -2
29 -14 14 -13 30 -19 39 -15 9 3 14 2 11 -2 -2 -4 11 -17 30 -30 19 -12 34
-17 34 -11 0 16 45 -15 46 -32 1 -8 2 -22 3 -32 0 -10 5 -16 10 -12 12 7 31
-26 31 -53 0 -15 -7 -20 -27 -20 -41 0 -60 14 -66 47 -6 27 -11 31 -67 42 -33
6 -60 15 -60 20 0 11 -42 8 -57 -4 -7 -5 -13 -6 -13 -2 0 5 -8 -1 -17 -11 -21
-22 -53 -30 -53 -13 0 7 -12 2 -27 -12 -16 -13 -46 -33 -68 -44 -22 -11 -42
-22 -45 -25 -11 -13 -66 -30 -90 -28 -14 1 -46 1 -72 0 -38 -2 -48 -6 -49 -19
0 -15 -2 -15 -9 2 -5 11 -9 14 -9 7 -1 -9 -8 -11 -21 -7 -11 3 -20 2 -20 -3 0
-6 -7 -13 -16 -16 -12 -4 -14 -1 -9 14 6 18 4 19 -19 9 -18 -9 -33 -9 -56 0
-18 6 -36 8 -41 5 -11 -6 -143 -7 -224 0 -33 2 -90 15 -128 29 l-67 25 -43
-31 c-53 -39 -59 -45 -75 -81 -11 -24 -11 -31 0 -37 10 -7 10 -9 1 -9 -7 0
-13 -7 -13 -15 0 -7 -6 -18 -14 -22 -24 -14 -38 -79 -30 -139 6 -52 8 -55 30
-50 14 4 24 2 24 -4 0 -5 9 -10 20 -10 11 0 20 4 20 9 0 6 18 9 40 9 29 0 43
-6 51 -19 5 -11 16 -19 24 -19 8 0 15 -4 15 -10 0 -16 79 -31 128 -24 44 6
145 48 184 76 28 20 33 0 7 -28 l-24 -26 23 6 c15 5 24 3 28 -8 3 -9 12 -12
21 -9 11 4 14 2 9 -5 -4 -7 -2 -20 4 -29 8 -14 10 -14 9 -3 -4 40 1 52 20 47
14 -3 18 -1 14 9 -3 8 1 14 9 14 14 0 28 37 58 153 9 33 16 44 21 35 7 -10 9
-9 9 5 0 41 30 13 51 -48 8 -22 22 -49 32 -59 9 -11 17 -27 17 -37 0 -9 10
-28 21 -43 20 -25 22 -26 40 -11 26 24 81 29 123 11 31 -13 36 -13 36 0 0 7
-6 14 -12 14 -7 0 -31 17 -53 37 l-40 36 40 -23 c22 -13 53 -33 69 -44 19 -12
49 -21 85 -22 l56 -3 -50 10 c-73 14 -82 18 -66 28 23 15 112 5 130 -14 9 -10
10 -15 4 -11 -7 4 -13 2 -13 -4 0 -11 32 -9 61 4 9 4 20 6 25 5 33 -6 60 3 69
24 6 12 20 23 33 25 12 2 22 10 22 19 0 11 5 9 19 -8 17 -21 22 -22 40 -11 19
11 21 10 21 -18 0 -29 -1 -30 -52 -31 -29 -1 -44 -4 -33 -6 33 -8 47 -24 34
-39 -13 -15 23 -38 50 -31 11 3 17 -2 18 -14 1 -11 -2 -19 -8 -19 -5 0 -9 -4
-9 -10 0 -5 8 -6 18 -3 15 6 15 5 3 -10 -8 -10 -11 -20 -7 -24 3 -3 -5 -21
-19 -38 -13 -18 -21 -35 -18 -39 4 -3 -2 -6 -11 -6 -10 0 -27 -10 -38 -22 -11
-13 -17 -17 -13 -10 11 21 -21 13 -49 -13 -15 -14 -45 -28 -69 -31 -23 -4 -47
-11 -54 -16 -8 -6 -18 -3 -30 11 -9 12 -23 21 -30 21 -7 0 -13 5 -13 10 0 6
-9 10 -19 10 -11 0 -23 5 -26 10 -3 6 -11 10 -16 10 -16 0 0 -40 27 -69 12
-13 21 -28 18 -32 -2 -5 4 -13 14 -18 11 -6 22 -19 25 -30 4 -17 -3 -21 -44
-30 -26 -6 -55 -8 -64 -5 -8 3 -15 1 -15 -5 0 -17 -29 -1 -35 20 -5 16 -10 18
-21 8 -11 -9 -15 -8 -20 5 -5 13 -9 14 -20 5 -8 -6 -14 -7 -14 -2 0 5 15 16
33 24 17 8 38 26 45 41 17 36 28 128 15 128 -5 0 -27 16 -49 35 -21 19 -48 34
-59 34 -17 -1 -17 -2 -2 -6 9 -2 17 -10 17 -16 0 -7 16 -32 36 -56 40 -51 41
-80 4 -98 -40 -19 -83 -24 -92 -10 -6 9 -11 9 -25 -1 -10 -6 -25 -15 -33 -18
-8 -3 -28 -11 -45 -18 -26 -11 -38 -10 -85 5 -63 21 -90 24 -90 8 0 -7 -17
-10 -45 -7 -37 3 -45 0 -45 -14 0 -10 13 -24 28 -32 44 -23 53 -38 39 -66 -7
-14 -17 -25 -22 -26 -6 0 -28 -4 -50 -9 -22 -5 -44 -8 -48 -7 -10 3 -68 -27
-85 -45 -11 -11 -17 -11 -28 -2 -12 10 -12 16 2 38 52 79 62 99 67 126 4 17 4
24 1 17 -5 -10 -9 -10 -20 -1 -11 9 -14 8 -14 -5 0 -17 -11 -19 -47 -10 -13 4
-20 10 -17 15 6 10 -7 12 -30 3 -9 -3 -13 -10 -11 -15 7 -10 -66 19 -79 32
-15 14 -32 11 -18 -3 17 -17 15 -30 -5 -26 -10 2 -18 12 -18 23 0 11 -8 21
-17 23 -13 2 -16 -1 -12 -12 3 -9 1 -16 -5 -16 -7 0 -14 7 -17 15 -4 8 -12 15
-19 15 -20 0 -39 27 -23 33 7 3 1 6 -13 6 l-26 1 12 -57 c7 -32 20 -85 30
-118 9 -33 18 -67 20 -75 2 -8 11 -34 20 -57 17 -42 17 -44 -4 -65 -11 -13
-30 -34 -41 -48 -19 -23 -20 -23 -10 -2 14 29 3 28 -26 -3 -22 -23 -74 -32
-74 -13 0 14 -74 8 -117 -9 -41 -17 -66 -53 -37 -53 21 0 16 -13 -12 -33 -14
-10 -32 -16 -40 -13 -16 6 -19 26 -4 26 6 0 10 5 10 10 0 6 -6 10 -14 10 -8 0
-17 6 -19 13 -4 10 -6 10 -6 0 -1 -7 -6 -13 -12 -13 -5 0 -7 5 -4 10 3 6 2 10
-4 10 -18 0 -23 -20 -7 -26 9 -3 16 -13 16 -20 0 -11 -11 -14 -41 -12 -36 2
-39 3 -23 15 16 12 14 13 -15 13 -24 0 -34 -5 -38 -19 -3 -11 -12 -22 -20 -25
-8 -3 -11 -10 -8 -16 3 -5 0 -7 -8 -4 -9 3 -13 13 -10 25 4 14 0 19 -14 19
-10 0 -23 4 -28 9 -6 6 -27 6 -55 0 -35 -7 -46 -15 -47 -29 -1 -11 3 -20 8
-20 6 0 9 -5 7 -11 -2 -6 -8 -10 -13 -10 -6 0 -19 -9 -30 -19 -11 -11 -36 -21
-55 -24 -19 -2 -54 -9 -78 -15 -23 -7 -47 -9 -53 -6 -12 8 -139 -35 -139 -47
0 -4 -8 -8 -17 -8 -10 0 -31 -12 -48 -26 l-30 -26 26 7 c17 4 38 1 56 -8 30
-16 61 -62 50 -74 -4 -3 -7 1 -7 11 0 9 -4 15 -9 12 -5 -3 -14 1 -21 9 -14 17
-35 20 -24 4 5 -8 1 -8 -14 0 -28 15 -31 14 -27 -9 3 -14 -1 -20 -13 -19 -32
2 -63 14 -62 24 0 6 -10 11 -22 13 -19 2 -24 -2 -26 -24 -1 -15 5 -35 14 -45
9 -10 13 -22 10 -27 -3 -5 19 -34 50 -66 30 -31 52 -56 48 -56 -12 0 -64 34
-64 42 0 4 -5 8 -11 8 -6 0 -27 14 -46 30 -37 33 -68 38 -98 16 -19 -14 -19
-15 -2 -33 9 -11 17 -29 17 -40 0 -12 6 -23 13 -26 6 -2 9 -8 5 -12 -4 -4 -19
2 -34 14 -39 31 -61 27 -67 -11 -2 -18 0 -39 5 -45 8 -9 6 -13 -6 -13 -18 0
-22 -25 -5 -36 8 -4 7 -9 -2 -16 -9 -5 -4 -6 14 -2 24 5 27 3 27 -19 0 -25
-24 -44 -35 -27 -3 4 -18 2 -34 -6 -21 -11 -28 -20 -24 -34 3 -11 11 -20 18
-20 7 0 15 -13 17 -29 2 -17 1 -28 -4 -25 -16 10 -8 -9 10 -22 15 -12 14 -13
-11 -14 -20 0 -30 6 -34 19 -5 22 -29 35 -45 25 -5 -3 -7 -18 -4 -33 l6 -26
-14 25 c-14 24 -14 24 -13 -13 1 -23 -6 -44 -16 -54 -15 -15 -15 -17 0 -28 18
-14 8 -39 -12 -31 -7 2 -15 -4 -18 -15 -3 -10 -1 -19 4 -19 4 0 6 -7 3 -15 -4
-8 -10 -13 -14 -10 -9 6 29 -77 39 -85 12 -10 32 -52 28 -57 -3 -2 -16 6 -28
19 -25 25 -70 58 -80 58 -7 0 -19 -48 -22 -90 -1 -14 -6 -31 -11 -38 -4 -7 -3
-19 4 -27 17 -21 4 -36 -23 -26 -15 6 -26 4 -35 -5 -7 -8 -9 -14 -5 -14 4 0 2
-5 -5 -12 -16 -16 -15 -29 1 -23 8 4 12 -5 12 -27 0 -17 -6 -33 -12 -35 -7 -3
-13 3 -13 13 0 9 -3 15 -6 11 -11 -11 7 -85 26 -107 10 -12 17 -27 14 -35 -3
-7 2 -15 11 -19 10 -3 15 -13 12 -20 -3 -8 -1 -17 6 -19 7 -2 9 -7 6 -11 -9
-9 -79 22 -79 36 0 6 -3 9 -6 6 -3 -3 4 -23 15 -44 11 -20 17 -42 14 -48 -4
-6 -8 -17 -9 -26 -1 -8 -5 -22 -8 -31 -4 -9 -1 -23 8 -31 13 -13 12 -18 -9
-40 -13 -14 -29 -28 -36 -30 -16 -5 -23 -104 -11 -148 9 -34 10 -35 19 -11 6
15 12 20 16 13 8 -12 -9 -56 -35 -91 -10 -13 -18 -35 -18 -50 l0 -26 25 32
c66 83 370 100 591 32 82 -25 189 -82 199 -106 16 -36 -6 -305 -26 -328 -13
-13 -11 -45 3 -45 6 0 4 -8 -6 -19 -29 -32 -11 -41 82 -41 54 0 82 4 73 9 -7
5 -10 14 -6 21 4 6 8 69 9 138 2 144 21 243 56 291 12 19 26 47 29 64 14 68
61 29 86 -71 9 -37 28 -93 41 -124 25 -62 58 -192 69 -275 l7 -53 2125 0
c1828 0 2126 2 2139 14 18 19 18 82 -1 136 -8 23 -15 59 -15 80 0 21 -9 82
-19 136 -11 55 -25 140 -31 189 -6 50 -35 198 -65 330 -29 132 -56 276 -60
319 -14 177 -109 527 -138 509 -5 -3 -7 -1 -4 4 8 13 -22 105 -32 99 -4 -3
-15 6 -25 20 -11 13 -24 24 -30 24 -6 0 -4 -5 4 -11 13 -9 13 -10 0 -6 -8 2
-14 11 -14 20 1 9 -3 15 -9 14 -6 -1 -11 3 -12 10 0 15 -15 30 -15 15 0 -7
-14 -3 -35 9 -33 20 -35 20 -35 2 0 -15 -2 -15 -10 -3 -13 20 9 31 34 18 21
-11 21 -11 1 9 -11 11 -22 16 -23 11 -2 -5 -15 3 -29 17 -14 14 -35 25 -46 25
-20 0 -20 -1 -2 -13 12 -10 14 -16 7 -21 -16 -9 -32 1 -32 20 0 8 -4 12 -10 9
-10 -6 -104 53 -178 113 -24 19 -94 56 -155 82 -62 26 -139 60 -172 74 -187
85 -228 102 -257 110 -16 3 -28 10 -28 15 0 5 -13 12 -30 16 -16 4 -30 11 -30
16 0 5 -11 11 -25 15 -14 3 -25 10 -25 15 0 5 -9 9 -19 9 -11 0 -26 6 -33 13
-11 11 -45 27 -137 65 -11 4 -13 1 -8 -13 12 -30 -20 2 -58 59 -57 86 -213
238 -302 295 -46 30 -81 57 -78 61 3 4 7 45 10 91 4 46 8 98 10 115 2 16 -1
37 -6 45 -6 10 -9 10 -9 2 0 -7 -9 -13 -20 -13 -20 0 -26 11 -12 24 10 11 9
86 -2 86 -6 0 -5 5 2 12 8 8 12 49 12 120 0 59 4 108 9 108 10 0 9 69 -2 86
-10 16 -11 76 -3 103 5 15 4 21 -2 17 -5 -3 -13 -20 -17 -38 -8 -31 -9 -30
-14 22 -4 33 -9 50 -14 43 -12 -20 -27 -15 -27 7 0 11 5 20 11 20 7 0 9 13 5
38 -4 20 -7 52 -6 70 0 17 -5 32 -11 32 -8 0 -8 4 0 14 8 10 9 16 1 21 -5 3
-10 19 -10 36 0 31 -14 39 -24 14 -5 -13 -9 -14 -28 -4 -13 7 -31 13 -40 14
-25 2 -35 15 -19 25 17 10 7 40 -13 40 -8 0 -30 9 -49 20 -21 12 -41 18 -52
14 -15 -6 -17 -3 -11 19 5 23 3 27 -21 33 -15 4 -34 14 -42 22 -13 12 -16 12
-26 -2 -16 -21 -22 -20 -28 2 -4 13 -5 12 -6 -4z m62 -38 c9 -7 17 -19 17 -27
-1 -10 -5 -9 -14 4 -13 17 -15 17 -35 -4 -23 -25 -26 -22 -11 15 11 29 17 31
43 12z m142 -86 c-3 -5 -13 -10 -21 -10 -8 0 -14 5 -14 10 0 6 9 10 21 10 11
0 17 -4 14 -10z m-375 -67 c0 -7 9 -13 20 -13 11 0 20 -5 20 -11 0 -7 -7 -8
-17 -4 -10 4 -26 7 -35 7 -10 0 -16 6 -15 17 1 20 27 24 27 4z m230 -283 c0
-5 -6 -11 -12 -11 -7 -1 -23 -3 -35 -4 -12 -1 -20 2 -17 7 3 4 9 6 14 3 5 -3
11 -1 15 5 8 13 35 13 35 0z m336 -23 c3 -23 -3 -21 -17 4 -8 17 -8 20 2 17 7
-2 13 -12 15 -21z m-1426 -31 c0 -8 -16 -23 -35 -35 -44 -25 -45 -17 -3 21 36
32 38 33 38 14z m1033 -33 c-7 -2 -19 -2 -25 0 -7 3 -2 5 12 5 14 0 19 -2 13
-5z m-73 -60 c0 -28 41 -63 73 -63 30 0 61 26 72 61 4 11 11 19 16 19 17 0 49
-20 49 -30 0 -14 -84 -60 -108 -60 -15 0 -22 -6 -22 -20 0 -16 -7 -20 -31 -20
-31 0 -32 19 -1 21 33 2 -64 19 -118 20 -30 1 -50 3 -43 6 7 2 30 22 51 44 43
42 62 49 62 22z m67 -5 c-3 -8 -6 -5 -6 6 -1 11 2 17 5 13 3 -3 4 -12 1 -19z
m-684 -67 c23 -10 51 -22 62 -26 19 -8 18 -9 -5 -12 -14 -3 -54 -13 -89 -24
-35 -10 -74 -19 -87 -19 -25 0 -33 -15 -11 -23 6 -3 2 -6 -10 -6 -13 -1 -23 3
-23 9 0 5 -7 7 -15 4 -8 -4 -15 -2 -15 3 0 6 -18 18 -40 28 -22 10 -40 21 -40
24 0 10 54 43 65 39 6 -1 9 -6 8 -10 -4 -12 58 -58 78 -58 11 0 35 15 54 33
26 26 32 36 23 45 -17 17 -3 15 45 -7z m467 15 c0 -3 -4 -8 -10 -11 -5 -3 -10
-1 -10 4 0 6 5 11 10 11 6 0 10 -2 10 -4z m-375 -26 c3 -5 2 -10 -4 -10 -5 0
-13 5 -16 10 -3 6 -2 10 4 10 5 0 13 -4 16 -10z m908 -36 c-7 -18 -17 -18 -32
-1 -8 10 -7 17 1 25 15 15 39 -3 31 -24z m-66 20 c-3 -3 -12 -4 -19 -1 -8 3
-5 6 6 6 11 1 17 -2 13 -5z m96 -14 c3 -11 1 -20 -4 -20 -5 0 -9 9 -9 20 0 11
2 20 4 20 2 0 6 -9 9 -20z m-936 -26 c-3 -3 -12 -4 -19 -1 -8 3 -5 6 6 6 11 1
17 -2 13 -5z m-137 -23 c0 -12 -48 -23 -63 -14 -7 5 1 10 23 14 19 4 36 7 38
8 1 0 2 -3 2 -8z m375 -480 c3 -6 -4 -15 -15 -21 -17 -9 -20 -8 -20 10 0 20
24 28 35 11z m45 -5 c0 -3 -4 -8 -10 -11 -5 -3 -10 -1 -10 4 0 6 5 11 10 11 6
0 10 -2 10 -4z m-80 -71 c1 20 1 20 15 1 14 -18 15 -18 15 -2 0 15 2 16 15 2
8 -8 15 -27 15 -43 l1 -28 17 34 c17 35 42 53 42 31 0 -24 27 -35 89 -34 43 0
76 -6 102 -19 22 -10 39 -20 39 -22 0 -1 -17 0 -37 4 -94 14 -166 7 -224 -23
-56 -29 -57 -29 -98 -13 -52 21 -93 21 -160 1 -34 -10 -57 -12 -63 -6 -13 13
73 53 129 60 33 3 47 10 50 23 3 10 11 15 19 12 9 -3 14 2 15 18 0 23 1 23 9
4 l9 -20 1 20z m82 -7 c-7 -7 -12 -8 -12 -2 0 6 3 14 7 17 3 4 9 5 12 2 2 -3
-1 -11 -7 -17z m134 -173 c1 -8 -4 -15 -11 -15 -15 0 -28 -27 -19 -41 3 -5 17
-9 32 -9 14 0 22 -4 17 -8 -37 -31 -241 -57 -325 -41 -30 5 -67 10 -82 9 -21
0 -28 5 -28 18 0 10 -5 23 -12 30 -16 16 0 16 77 -3 37 -8 64 -10 70 -4 5 5 0
9 -15 9 -30 0 -57 16 -46 27 9 9 165 25 258 26 37 0 67 3 66 6 -3 28 14 23 18
-4z m640 11 c79 -28 97 -37 91 -43 -7 -6 -115 34 -131 49 -14 11 -4 10 40 -6z
m-1676 -91 c0 -8 -7 -15 -15 -15 -9 0 -12 6 -9 15 4 8 10 15 15 15 5 0 9 -7 9
-15z m556 1 c8 -8 14 -30 13 -48 l-1 -33 -14 32 c-14 32 -34 52 -34 34 0 -6 5
-11 10 -11 6 0 10 -10 10 -22 -1 -23 -1 -23 -15 2 -28 49 -6 83 31 46z m598
-131 c12 -9 16 -20 11 -32 -6 -16 -8 -16 -16 5 -4 12 -16 22 -24 22 -9 0 -13
5 -10 10 8 13 16 12 39 -5z m-71 -19 c26 10 48 -14 41 -45 -7 -28 -32 -54 -45
-46 -4 3 -10 1 -14 -5 -4 -7 -13 -6 -27 1 -13 7 -18 7 -14 1 3 -6 1 -21 -4
-34 -10 -20 -18 -23 -69 -22 -31 0 -63 4 -70 8 -7 5 -18 3 -24 -3 -17 -17 -77
-14 -84 5 -3 8 -12 13 -21 9 -8 -3 -21 0 -28 6 -10 8 -14 8 -14 0 0 -19 -39
-12 -50 9 -6 11 -17 20 -24 20 -8 0 -17 12 -21 27 -10 40 13 47 174 49 175 3
261 12 261 27 0 8 3 8 8 -1 5 -7 16 -10 25 -6z m-1833 -66 c0 -17 -5 -19 -32
-14 -25 4 -29 3 -18 -5 18 -13 1 -14 -19 -2 -11 7 -7 12 15 25 39 21 54 20 54
-4z m-193 -176 c-3 -3 -12 -4 -19 -1 -8 3 -5 6 6 6 11 1 17 -2 13 -5z m-277
-244 c0 -5 -4 -10 -10 -10 -5 0 -10 5 -10 10 0 6 5 10 10 10 6 0 10 -4 10 -10z
m1645 -155 c13 -55 28 -112 34 -127 8 -22 8 -28 -3 -28 -18 0 -39 27 -41 53
-3 28 -34 225 -40 252 -3 11 2 4 11 -15 9 -19 27 -80 39 -135z m1393 84 c-10
-6 -18 -21 -18 -34 0 -13 -4 -27 -10 -30 -5 -3 -10 -18 -10 -33 0 -15 -27 -85
-60 -156 -32 -71 -57 -133 -54 -138 8 -12 -15 -38 -32 -38 -8 0 -14 6 -14 14
0 18 106 232 119 240 6 4 11 13 11 19 0 7 -7 4 -14 -6 -8 -10 -16 -14 -18 -10
-3 4 -3 3 -2 -4 2 -7 -13 -25 -32 -40 -19 -15 -60 -52 -92 -80 -31 -29 -63
-53 -71 -53 -8 0 -11 -3 -8 -6 4 -4 -10 -20 -30 -35 -20 -16 -49 -45 -66 -64
-16 -19 -34 -32 -40 -28 -5 3 -7 1 -4 -4 9 -14 -87 -103 -110 -103 -15 0 -16
-2 -3 -11 13 -9 13 -10 0 -5 -74 25 -93 28 -134 22 -25 -4 -46 -12 -46 -18 0
-5 -7 -8 -15 -4 -8 3 -15 1 -15 -5 0 -7 -17 -10 -44 -8 -24 2 -42 1 -39 -3 2
-5 -1 -8 -6 -8 -6 0 -11 7 -11 15 0 8 -11 17 -25 21 -14 3 -25 11 -25 18 0 6
-5 3 -11 -6 -21 -37 -87 -3 -73 38 5 16 4 16 -5 4 -9 -13 -12 -12 -17 8 -4 12
-10 22 -15 22 -19 0 -8 18 14 24 23 5 27 16 29 84 1 17 6 32 12 32 12 0 46
-105 46 -140 0 -22 22 -27 38 -7 8 10 20 81 22 135 0 8 8 10 24 6 13 -3 34 0
46 6 38 20 66 5 78 -42 8 -31 19 -46 37 -55 24 -10 27 -9 36 13 5 14 9 29 9
34 0 4 6 19 13 33 9 18 17 23 24 16 6 -6 19 -4 39 6 16 8 25 15 20 15 -5 0 -3
7 4 15 7 9 19 14 27 11 8 -3 13 2 13 12 0 17 60 72 78 72 5 0 15 7 22 15 7 8
25 15 41 15 29 0 46 14 30 24 -5 4 -12 1 -14 -4 -3 -6 -4 -5 -3 2 3 15 47 17
59 3 6 -7 10 -6 13 2 3 7 12 9 20 6 8 -3 14 0 14 6 0 6 14 11 30 11 17 0 30 5
30 13 0 6 17 28 38 48 21 19 36 42 34 49 -3 9 1 11 11 7 10 -4 20 0 26 11 5
10 21 24 36 32 19 10 25 20 21 34 -5 18 -3 18 17 -3 20 -21 21 -23 5 -32z
m-2888 10 c12 -22 2 -25 -25 -6 -10 8 -15 19 -11 26 9 14 22 7 36 -20z m-180
-43 c0 -2 -7 -9 -15 -16 -12 -10 -15 -10 -15 4 0 9 7 16 15 16 8 0 15 -2 15
-4z m2780 -95 c0 -5 -7 -12 -16 -15 -24 -9 -28 -7 -14 9 14 17 30 20 30 6z
m-880 -141 c0 -5 -4 -10 -10 -10 -5 0 -10 5 -10 10 0 6 5 10 10 10 6 0 10 -4
10 -10z m91 -90 c5 0 9 -8 8 -17 0 -11 -3 -13 -6 -5 -2 6 -13 12 -24 12 -10 0
-19 5 -19 11 0 6 7 8 16 5 9 -3 20 -6 25 -6z m-81 -4 c0 -3 -4 -8 -10 -11 -5
-3 -10 -1 -10 4 0 6 5 11 10 11 6 0 10 -2 10 -4z m54 -52 c4 -11 0 -15 -16
-12 -12 2 -23 9 -26 16 -6 18 35 15 42 -4z m61 6 c-3 -5 -10 -10 -16 -10 -5 0
-9 5 -9 10 0 6 7 10 16 10 8 0 12 -4 9 -10z m-10 -70 c-3 -5 -11 -10 -16 -10
-6 0 -7 5 -4 10 3 6 11 10 16 10 6 0 7 -4 4 -10z m-257 -45 c-3 -3 -9 2 -12
12 -6 14 -5 15 5 6 7 -7 10 -15 7 -18z m476 -407 c-5 -9 -2 -9 9 1 20 16 23 2
5 -18 -10 -11 -10 -13 0 -7 17 10 16 -38 -2 -53 -8 -7 -30 -11 -48 -9 -27 2
-33 8 -36 28 -2 19 6 31 30 48 36 24 53 29 42 10z"/>
<path d="M2860 2786 c0 -2 9 -6 20 -9 11 -3 20 -1 20 4 0 5 -9 9 -20 9 -11 0
-20 -2 -20 -4z"/>
<path d="M3837 1851 c-4 -17 -3 -21 5 -13 5 5 8 16 6 23 -3 8 -7 3 -11 -10z"/>
<path d="M3800 1815 c-11 -13 -10 -14 4 -9 9 3 16 10 16 15 0 13 -6 11 -20 -6z"/>
<path d="M3765 1751 c-3 -5 -2 -12 3 -15 5 -3 9 1 9 9 0 17 -3 19 -12 6z"/>
<path d="M3730 1684 c0 -8 5 -12 10 -9 6 3 10 10 10 16 0 5 -4 9 -10 9 -5 0
-10 -7 -10 -16z"/>
<path d="M3477 1483 c3 -7 6 -13 8 -13 1 0 7 6 13 13 8 10 6 13 -7 13 -11 0
-17 -6 -14 -13z"/>
<path d="M2976 1344 c-8 -21 -8 -21 9 -21 8 0 15 9 15 19 0 22 -16 24 -24 2z"/>
<path d="M3485 4180 c4 -6 11 -8 16 -5 14 9 11 15 -7 15 -8 0 -12 -5 -9 -10z"/>
<path d="M3453 4163 c-21 -8 -15 -40 10 -47 36 -10 41 -7 23 13 -10 11 -15 25
-11 30 6 11 -1 13 -22 4z"/>
<path d="M2295 4121 c-3 -5 -1 -12 5 -16 5 -3 10 1 10 9 0 18 -6 21 -15 7z"/>
<path d="M3570 4080 c0 -21 -5 -30 -16 -30 -8 0 -13 -4 -9 -10 3 -5 12 -7 20
-3 9 3 15 -1 15 -11 0 -9 4 -16 9 -16 5 0 8 12 6 28 -2 15 -4 37 -4 50 -1 34
-21 26 -21 -8z"/>
<path d="M2370 4081 c0 -5 9 -11 20 -14 15 -4 20 -13 19 -34 -1 -22 -3 -23 -6
-7 -3 16 -14 24 -41 29 -70 13 -95 14 -112 5 -13 -7 -20 -6 -24 3 -3 9 -9 7
-19 -5 -8 -10 -19 -18 -25 -18 -6 0 -17 -10 -23 -22 -7 -13 -18 -27 -25 -31
-8 -4 -14 -15 -14 -22 0 -8 -5 -15 -11 -15 -8 0 -8 -5 1 -15 10 -12 10 -15 -4
-15 -9 0 -16 -4 -16 -10 0 -5 7 -7 15 -4 12 5 15 -2 15 -29 0 -26 6 -40 23
-52 l22 -16 -25 3 c-17 2 -25 -2 -25 -12 0 -21 76 -16 88 5 4 9 13 12 19 9 6
-4 14 0 19 7 7 11 9 10 9 -5 0 -15 2 -16 15 -6 9 7 14 19 11 27 -3 7 -1 13 3
13 5 0 7 9 4 20 -4 14 0 20 13 22 28 2 65 0 103 -6 28 -4 34 -1 39 16 5 21 6
21 15 -3 9 -23 9 -23 17 -4 9 19 9 19 16 -3 3 -13 11 -21 17 -19 15 5 21 27 7
27 -14 0 -40 25 -40 38 0 12 24 22 51 22 24 0 24 9 -2 40 -20 24 -20 24 -14 3
5 -17 2 -23 -9 -23 -9 0 -16 7 -16 15 0 8 -5 15 -11 15 -6 0 -9 7 -5 15 6 18
-5 20 -21 4 -8 -8 -13 -5 -18 12 -4 13 -13 29 -21 36 -14 15 -34 17 -34 4z
m-96 -77 c3 -8 2 -12 -4 -9 -6 3 -10 10 -10 16 0 14 7 11 14 -7z m79 -51 c-7
-2 -19 -2 -25 0 -7 3 -2 5 12 5 14 0 19 -2 13 -5z m45 -58 c-3 -3 -9 2 -12 12
-6 14 -5 15 5 6 7 -7 10 -15 7 -18z"/>
<path d="M2160 4069 c0 -5 5 -7 10 -4 6 3 10 8 10 11 0 2 -4 4 -10 4 -5 0 -10
-5 -10 -11z"/>
<path d="M3030 4056 c0 -16 18 -31 27 -22 3 3 -2 12 -11 21 -14 14 -16 14 -16
1z"/>
<path d="M2980 3920 c0 -5 10 -10 23 -10 18 0 19 2 7 10 -19 13 -30 13 -30 0z"/>
<path d="M3025 3900 c-3 -5 -2 -17 3 -26 6 -11 11 -13 16 -5 4 6 3 11 -3 11
-6 0 -8 7 -5 15 7 17 -1 20 -11 5z"/>
<path d="M3060 3900 c0 -5 7 -10 15 -10 8 0 15 5 15 10 0 6 -7 10 -15 10 -8 0
-15 -4 -15 -10z"/>
<path d="M3461 3864 c0 -11 3 -14 6 -6 3 7 2 16 -1 19 -3 4 -6 -2 -5 -13z"/>
<path d="M3520 3850 c0 -5 5 -10 11 -10 5 0 7 5 4 10 -3 6 -8 10 -11 10 -2 0
-4 -4 -4 -10z"/>
<path d="M1941 3805 c1 -19 18 -51 18 -35 0 8 -4 22 -9 30 -5 8 -9 11 -9 5z"/>
<path d="M3691 3754 c0 -11 3 -14 6 -6 3 7 2 16 -1 19 -3 4 -6 -2 -5 -13z"/>
<path d="M2115 3750 c4 -6 11 -8 16 -5 14 9 11 15 -7 15 -8 0 -12 -5 -9 -10z"/>
<path d="M2825 3750 c3 -5 8 -10 11 -10 2 0 4 5 4 10 0 6 -5 10 -11 10 -5 0
-7 -4 -4 -10z"/>
<path d="M2760 3710 c0 -11 4 -20 9 -20 5 0 7 9 4 20 -3 11 -7 20 -9 20 -2 0
-4 -9 -4 -20z"/>
<path d="M1896 3697 c4 -12 13 -35 22 -52 14 -28 16 -28 23 -10 5 13 8 -7 8
-53 1 -66 3 -72 19 -64 9 5 25 8 35 7 24 -4 23 44 -4 92 -28 51 -40 64 -50 57
-5 -3 -9 1 -9 8 0 7 -12 18 -26 25 -23 11 -24 10 -18 -10z"/>
<path d="M2840 3709 c0 -5 5 -7 10 -4 6 3 10 8 10 11 0 2 -4 4 -10 4 -5 0 -10
-5 -10 -11z"/>
<path d="M3883 3535 c-15 -16 -18 -75 -4 -75 5 0 12 12 15 28 4 15 9 35 12 45
6 20 -6 22 -23 2z"/>
<path d="M2020 3454 c0 -10 5 -26 10 -34 8 -11 9 -7 4 15 -8 37 -14 45 -14 19z"/>
<path d="M2150 3311 c0 -6 5 -13 10 -16 6 -3 10 1 10 9 0 9 -4 16 -10 16 -5 0
-10 -4 -10 -9z"/>
<path d="M2120 3285 c0 -8 5 -15 10 -15 6 0 10 7 10 15 0 8 -4 15 -10 15 -5 0
-10 -7 -10 -15z"/>
<path d="M2428 3253 c7 -3 16 -2 19 1 4 3 -2 6 -13 5 -11 0 -14 -3 -6 -6z"/>
<path d="M2660 3193 c0 -13 5 -23 10 -23 13 0 13 11 0 30 -8 12 -10 11 -10 -7z"/>
<path d="M2125 3170 c3 -5 8 -10 11 -10 2 0 4 5 4 10 0 6 -5 10 -11 10 -5 0
-7 -4 -4 -10z"/>
<path d="M2654 3152 c-6 -4 -14 -14 -18 -22 -4 -8 -13 -26 -21 -39 -14 -24
-10 -51 7 -51 5 0 7 4 4 9 -4 5 -3 11 1 13 5 1 18 17 31 35 31 45 29 78 -4 55z"/>
<path d="M2170 3134 c0 -8 5 -12 10 -9 6 4 8 11 5 16 -9 14 -15 11 -15 -7z"/>
<path d="M3485 3141 c-3 -5 -1 -12 5 -16 5 -3 10 1 10 9 0 18 -6 21 -15 7z"/>
<path d="M2587 3043 c-4 -3 -7 -13 -7 -22 1 -13 3 -13 11 2 11 19 8 33 -4 20z"/>
<path d="M1465 2470 c-3 -5 1 -10 10 -10 9 0 13 5 10 10 -3 6 -8 10 -10 10 -2
0 -7 -4 -10 -10z"/>
<path d="M556 1475 c-9 -26 -7 -32 5 -12 6 10 9 21 6 23 -2 3 -7 -2 -11 -11z"/>
<path d="M461 1114 c0 -11 3 -14 6 -6 3 7 2 16 -1 19 -3 4 -6 -2 -5 -13z"/>
<path d="M460 835 c-7 -9 -11 -18 -8 -20 3 -3 11 1 18 10 7 9 11 18 8 20 -3 3
-11 -1 -18 -10z"/>
<path d="M1460 20 c0 -11 5 -20 10 -20 6 0 10 9 10 20 0 11 -4 20 -10 20 -5 0
-10 -9 -10 -20z"/>
</g>
</svg>
